<?xml version="1.0" encoding="utf-8"?>
<svg xmlns="http://www.w3.org/2000/svg" width="400" height="400" viewBox="111.471 167.376 177.732 69.963">
  <g data-name="business_name_slogan_group" transform=" translate(-51.03419494628906, 0)">
    <g data-name="business_name" fill="#000000" data="id:170" transform="translate(170.34658389624957,170.36681117861556) scale(0.6941452874076105)">
      <path d="M35.99609375,40l-5.83984375,0l-1.85546875-21.26953125l-7.1484375,21.26953125l-3.7890625,0l-7.1484375-21.26953125l-1.875,21.26953125l-5.859375,0l2.36328125-28.22265625l8.359375,0l6.015625,17.71484375l6.09375-17.71484375l8.359375,0z M44.2578125,16.9140625c-1.77734375,0-3.26171875-1.4453125-3.26171875-3.2421875c0-1.77734375,1.484375-3.22265625,3.26171875-3.22265625c1.73828125,0,3.22265625,1.4453125,3.22265625,3.22265625c0,1.796875-1.484375,3.2421875-3.22265625,3.2421875z M41.38671875,40l0-20.078125l5.6640625,0l0,20.078125l-5.6640625,0z M52.87109375,40l0-30l5.68359375,0l0,30l-5.68359375,0z M73.73046875,40.390625c-6.38671875,0-10.99609375-3.88671875-10.99609375-10.44921875c0-6.5234375,4.5703125-10.41015625,10.99609375-10.41015625c6.46484375,0,11.015625,3.88671875,11.015625,10.41015625c0,6.5625-4.5703125,10.44921875-11.015625,10.44921875z M73.671875,35.91796875c3.26171875,0,5.48828125-2.3828125,5.48828125-5.9765625s-2.2265625-5.9765625-5.48828125-5.9765625c-3.14453125,0-5.3515625,2.3828125-5.3515625,5.9765625s2.20703125,5.9765625,5.3515625,5.9765625z M94.08203125,16.40625l-4.43359375-5.83984375l3.45703125,0l2.67578125,3.26171875l2.65625-3.26171875l3.4765625,0l-4.43359375,5.83984375l-3.3984375,0z M95.99609375,40.390625c-4.51171875,0-8.0078125-1.77734375-8.73046875-5.5859375l4.70703125-1.328125c0.60546875,2.1484375,2.12890625,2.98828125,4.0234375,2.98828125c1.38671875,0,2.890625-0.4296875,2.8515625-2.01171875c-0.01953125-2.08984375-3.18359375-2.265625-6.3671875-3.3984375c-2.40234375-0.83984375-4.70703125-2.12890625-4.70703125-5.5078125c0-4.12109375,3.41796875-6.015625,7.87109375-6.015625c3.90625,0,7.16796875,1.484375,7.94921875,5.3125l-4.35546875,0.9765625c-0.60546875-1.875-1.93359375-2.5390625-3.57421875-2.5390625c-1.484375,0-2.75390625,0.52734375-2.75390625,1.77734375c0,1.58203125,2.32421875,1.89453125,4.84375,2.578125c3.10546875,0.83984375,6.50390625,2.1875,6.50390625,6.484375c0,4.609375-3.92578125,6.26953125-8.26171875,6.26953125z  M130.234375,9.140625l5.1171875-7.1875l2.7734375,1.97265625l-4.43359375,5.21484375l-3.45703125,0z M131.93359375,40.390625c-8.30078125,0-14.43359375-5.64453125-14.43359375-14.51171875s6.1328125-14.4921875,14.43359375-14.4921875c6.2890625,0,11.328125,3.22265625,13.33984375,8.57421875l-5.46875,1.9921875c-1.25-3.28125-4.23828125-5.17578125-7.87109375-5.17578125c-4.86328125,0-8.59375,3.3984375-8.59375,9.1015625s3.73046875,9.12109375,8.59375,9.12109375c3.6328125,0,6.62109375-1.9140625,7.87109375-5.1953125l5.46875,1.9921875c-2.01171875,5.3515625-7.05078125,8.59375-13.33984375,8.59375z M158.69140625,40.390625c-6.38671875,0-10.99609375-3.88671875-10.99609375-10.44921875c0-6.5234375,4.5703125-10.41015625,10.99609375-10.41015625c6.46484375,0,11.015625,3.88671875,11.015625,10.41015625c0,6.5625-4.5703125,10.44921875-11.015625,10.44921875z M158.6328125,35.91796875c3.26171875,0,5.48828125-2.3828125,5.48828125-5.9765625s-2.2265625-5.9765625-5.48828125-5.9765625c-3.14453125,0-5.3515625,2.3828125-5.3515625,5.9765625s2.20703125,5.9765625,5.3515625,5.9765625z M185.6640625,19.53125c5.29296875,0,9.66796875,3.88671875,9.66796875,10.46875s-4.375,10.46875-9.66796875,10.46875c-2.6171875,0-4.9609375-1.015625-6.15234375-2.8515625l0,12.1484375l-5.625,0l0-29.84375l5.33203125,0l0.15625,2.6953125c1.11328125-1.9921875,3.5546875-3.0859375,6.2890625-3.0859375z M184.39453125,35.80078125c2.94921875,0,5.3125-2.1484375,5.3125-5.80078125s-2.36328125-5.80078125-5.3125-5.80078125c-3.0078125,0-5.3515625,2.28515625-5.3515625,5.80078125s2.34375,5.80078125,5.3515625,5.80078125z M202.44140625,16.9140625c-1.77734375,0-3.26171875-1.4453125-3.26171875-3.2421875c0-1.77734375,1.484375-3.22265625,3.26171875-3.22265625c1.73828125,0,3.22265625,1.4453125,3.22265625,3.22265625c0,1.796875-1.484375,3.2421875-3.22265625,3.2421875z M199.5703125,40l0-20.078125l5.6640625,0l0,20.078125l-5.6640625,0z M218.125,17.16796875l5.1171875-7.1875l2.7734375,1.953125l-4.43359375,5.234375l-3.45703125,0z M220.13671875,40.37109375c-6.30859375,0-10.76171875-4.19921875-10.76171875-10.4296875c0-6.25,4.453125-10.41015625,10.76171875-10.41015625c5.078125,0,8.88671875,2.63671875,9.86328125,7.3828125l-5.1953125,0.56640625c-0.625-2.40234375-2.36328125-3.515625-4.7265625-3.515625c-3.02734375,0-5.078125,2.3828125-5.078125,5.9765625c0,3.57421875,2.05078125,5.9765625,5.078125,5.9765625c2.36328125,0,4.1015625-1.1328125,4.7265625-3.515625l5.1953125,0.56640625c-0.9765625,4.74609375-4.8828125,7.40234375-9.86328125,7.40234375z"/>
    </g>
    <g data-name="slogan" fill="#000000" data="id:300" transform="translate(171.64149995236895,207.79411089277127) scale(0.3680079781972639)">
      <path d="M18.16,24.62q-0.18,0.3-0.38,0.45t-0.52,0.15q-0.34,0-0.79-0.34t-1.14-0.75t-1.66-0.75t-2.35-0.34q-1.3,0-2.3,0.35t-1.67,0.95t-1.01,1.41t-0.34,1.75q0,1.2,0.59,1.99t1.56,1.35t2.2,0.97t2.52,0.85t2.52,0.99t2.2,1.39t1.56,2.06t0.59,3q0,1.88-0.64,3.53t-1.87,2.87t-3.02,1.92t-4.07,0.7q-2.78,0-5.07-1.01t-3.91-2.73l1.12-1.84q0.16-0.22,0.39-0.37t0.51-0.15q0.42,0,0.96,0.45t1.35,0.99t1.96,0.99t2.81,0.45q1.38,0,2.46-0.38t1.83-1.07t1.15-1.65t0.4-2.14q0-1.3-0.59-2.13t-1.55-1.39t-2.19-0.95t-2.52-0.8t-2.52-0.95t-2.19-1.4t-1.55-2.15t-0.59-3.19q0-1.52,0.59-2.94t1.71-2.52t2.77-1.76t3.79-0.66q2.4,0,4.38,0.76t3.46,2.2z M32.32,28.22q2.22,0,4.01,0.74t3.04,2.1t1.92,3.29t0.67,4.31q0,2.4-0.67,4.32t-1.92,3.28t-3.04,2.09t-4.01,0.73t-4.01-0.73t-3.05-2.09t-1.94-3.28t-0.68-4.32q0-2.38,0.68-4.31t1.94-3.29t3.05-2.1t4.01-0.74z M32.32,46.3q3,0,4.48-2.01t1.48-5.61q0-3.62-1.48-5.64t-4.48-2.02q-1.52,0-2.64,0.52t-1.87,1.5t-1.12,2.41t-0.37,3.23t0.37,3.22t1.12,2.39t1.87,1.49t2.64,0.52z M47.16,48.8l0-17.22l-2.24-0.26q-0.42-0.1-0.69-0.31t-0.27-0.61l0-1.46l3.2,0l0-1.96q0-1.74,0.49-3.09t1.4-2.28t2.19-1.41t2.88-0.48q1.36,0,2.52,0.4l-0.08,1.78q-0.02,0.4-0.34,0.48t-0.9,0.08l-0.62,0q-0.92,0-1.67,0.24t-1.29,0.78t-0.83,1.42t-0.29,2.18l0,1.86l5.86,0l0,2.58l-5.74,0l0,17.28l-3.58,0z M65.98,49.12q-2.4,0-3.69-1.34t-1.29-3.86l0-12.4l-2.44,0q-0.32,0-0.54-0.19t-0.22-0.59l0-1.42l3.32-0.42l0.82-6.26q0.04-0.3,0.26-0.49t0.56-0.19l1.8,0l0,6.98l5.8,0l0,2.58l-5.8,0l0,12.16q0,1.28,0.62,1.9t1.6,0.62q0.56,0,0.97-0.15t0.71-0.33t0.51-0.33t0.37-0.15q0.28,0,0.5,0.34l1.04,1.7q-0.92,0.86-2.22,1.35t-2.68,0.49z M72.12,28.54l2.8,0q0.44,0,0.72,0.22t0.38,0.52l3.88,13.04q0.16,0.72,0.3,1.39t0.24,1.35q0.16-0.68,0.36-1.35t0.42-1.39l4.28-13.12q0.1-0.3,0.35-0.5t0.63-0.2l1.54,0q0.4,0,0.66,0.2t0.36,0.5l4.18,13.12q0.22,0.7,0.39,1.38t0.33,1.34q0.1-0.66,0.26-1.38t0.34-1.34l3.96-13.04q0.1-0.32,0.38-0.53t0.66-0.21l2.68,0l-6.56,20.26l-2.82,0q-0.52,0-0.72-0.68l-4.48-13.74q-0.16-0.46-0.26-0.93t-0.2-0.93q-0.1,0.46-0.2,0.94t-0.26,0.94l-4.54,13.72q-0.22,0.68-0.82,0.68l-2.68,0z M120.28,48.8l-1.58,0q-0.52,0-0.84-0.16t-0.42-0.68l-0.4-1.88q-0.8,0.72-1.56,1.29t-1.6,0.96t-1.79,0.59t-2.11,0.2q-1.18,0-2.21-0.33t-1.79-0.99t-1.21-1.67t-0.45-2.39q0-1.2,0.66-2.31t2.13-1.97t3.85-1.41t5.82-0.63l0-1.58q0-2.36-1.01-3.57t-2.99-1.21q-1.3,0-2.19,0.33t-1.54,0.74t-1.12,0.74t-0.93,0.33q-0.36,0-0.63-0.19t-0.43-0.47l-0.64-1.14q1.68-1.62,3.62-2.42t4.3-0.8q1.7,0,3.02,0.56t2.22,1.56t1.36,2.42t0.46,3.12l0,12.96z M111.04,46.62q0.94,0,1.72-0.19t1.47-0.54t1.32-0.85t1.23-1.14l0-4.22q-2.46,0.08-4.18,0.39t-2.8,0.81t-1.57,1.18t-0.49,1.52q0,0.8,0.26,1.38t0.7,0.95t1.04,0.54t1.3,0.17z M125.68,48.8l0-20.26l2.04,0q0.58,0,0.8,0.22t0.3,0.76l0.24,3.16q1.04-2.12,2.57-3.31t3.59-1.19q0.84,0,1.52,0.19t1.26,0.53l-0.46,2.66q-0.14,0.5-0.62,0.5q-0.28,0-0.86-0.19t-1.62-0.19q-1.86,0-3.11,1.08t-2.09,3.14l0,12.9l-3.56,0z M149.82,28.22q1.82,0,3.36,0.61t2.66,1.76t1.75,2.84t0.63,3.85q0,0.84-0.18,1.12t-0.68,0.28l-13.48,0q0.04,1.92,0.52,3.34t1.32,2.37t2,1.42t2.6,0.47q1.34,0,2.31-0.31t1.67-0.67t1.17-0.67t0.81-0.31q0.44,0,0.68,0.34l1,1.3q-0.66,0.8-1.58,1.39t-1.97,0.97t-2.17,0.57t-2.22,0.19q-2.1,0-3.87-0.71t-3.06-2.08t-2.01-3.39t-0.72-4.64q0-2.12,0.65-3.96t1.87-3.19t2.98-2.12t3.96-0.77z M149.9,30.84q-2.58,0-4.06,1.49t-1.84,4.13l11.02,0q0-1.24-0.34-2.27t-1-1.78t-1.61-1.16t-2.17-0.41z  M195.88,34.48q0,3.22-1.02,5.86t-2.88,4.52t-4.46,2.91t-5.76,1.03l-10.72,0l0-28.66l10.72,0q3.16,0,5.76,1.03t4.46,2.92t2.88,4.53t1.02,5.86z M191.9,34.48q0-2.64-0.72-4.72t-2.04-3.52t-3.2-2.2t-4.18-0.76l-6.82,0l0,22.38l6.82,0q2.3,0,4.18-0.76t3.2-2.19t2.04-3.51t0.72-4.72z M208.62,28.22q1.82,0,3.36,0.61t2.66,1.76t1.75,2.84t0.63,3.85q0,0.84-0.18,1.12t-0.68,0.28l-13.48,0q0.04,1.92,0.52,3.34t1.32,2.37t2,1.42t2.6,0.47q1.34,0,2.31-0.31t1.67-0.67t1.17-0.67t0.81-0.31q0.44,0,0.68,0.34l1,1.3q-0.66,0.8-1.58,1.39t-1.97,0.97t-2.17,0.57t-2.22,0.19q-2.1,0-3.87-0.71t-3.06-2.08t-2.01-3.39t-0.72-4.64q0-2.12,0.65-3.96t1.87-3.19t2.98-2.12t3.96-0.77z M208.7,30.84q-2.58,0-4.06,1.49t-1.84,4.13l11.02,0q0-1.24-0.34-2.27t-1-1.78t-1.61-1.16t-2.17-0.41z M219,28.54l2.92,0q0.42,0,0.7,0.22t0.4,0.52l5.14,13.04q0.28,0.72,0.44,1.44t0.3,1.42q0.16-0.7,0.34-1.42t0.46-1.44l5.2-13.04q0.12-0.32,0.39-0.53t0.67-0.21l2.78,0l-8.26,20.26l-3.22,0z M250.06,28.22q1.82,0,3.36,0.61t2.66,1.76t1.75,2.84t0.63,3.85q0,0.84-0.18,1.12t-0.68,0.28l-13.48,0q0.04,1.92,0.52,3.34t1.32,2.37t2,1.42t2.6,0.47q1.34,0,2.31-0.31t1.67-0.67t1.17-0.67t0.81-0.31q0.44,0,0.68,0.34l1,1.3q-0.66,0.8-1.58,1.39t-1.97,0.97t-2.17,0.57t-2.22,0.19q-2.1,0-3.87-0.71t-3.06-2.08t-2.01-3.39t-0.72-4.64q0-2.12,0.65-3.96t1.87-3.19t2.98-2.12t3.96-0.77z M250.14,30.84q-2.58,0-4.06,1.49t-1.84,4.13l11.02,0q0-1.24-0.34-2.27t-1-1.78t-1.61-1.16t-2.17-0.41z M266.96,19.34l0,29.46l-3.56,0l0-29.46l3.56,0z M281.44,28.22q2.22,0,4.01,0.74t3.04,2.1t1.92,3.29t0.67,4.31q0,2.4-0.67,4.32t-1.92,3.28t-3.04,2.09t-4.01,0.73t-4.01-0.73t-3.05-2.09t-1.94-3.28t-0.68-4.32q0-2.38,0.68-4.31t1.94-3.29t3.05-2.1t4.01-0.74z M281.44,46.3q3,0,4.48-2.01t1.48-5.61q0-3.62-1.48-5.64t-4.48-2.02q-1.52,0-2.64,0.52t-1.87,1.5t-1.12,2.41t-0.37,3.23t0.37,3.22t1.12,2.39t1.87,1.49t2.64,0.52z M295.48,55.66l0-27.12l2.12,0q0.76,0,0.96,0.74l0.3,2.4q1.3-1.58,2.97-2.54t3.85-0.96q1.74,0,3.16,0.67t2.42,1.98t1.54,3.25t0.54,4.46q0,2.24-0.6,4.17t-1.72,3.34t-2.75,2.22t-3.67,0.81q-1.88,0-3.21-0.62t-2.35-1.76l0,8.96l-3.56,0z M304.5,31.06q-1.74,0-3.05,0.8t-2.41,2.26l0,9.8q0.98,1.32,2.15,1.86t2.61,0.54q2.82,0,4.34-2.02t1.52-5.76q0-1.98-0.35-3.4t-1.01-2.33t-1.62-1.33t-2.18-0.42z M325.58,28.22q1.82,0,3.36,0.61t2.66,1.76t1.75,2.84t0.63,3.85q0,0.84-0.18,1.12t-0.68,0.28l-13.48,0q0.04,1.92,0.52,3.34t1.32,2.37t2,1.42t2.6,0.47q1.34,0,2.31-0.31t1.67-0.67t1.17-0.67t0.81-0.31q0.44,0,0.68,0.34l1,1.3q-0.66,0.8-1.58,1.39t-1.97,0.97t-2.17,0.57t-2.22,0.19q-2.1,0-3.87-0.71t-3.06-2.08t-2.01-3.39t-0.72-4.64q0-2.12,0.65-3.96t1.87-3.19t2.98-2.12t3.96-0.77z M325.66,30.84q-2.58,0-4.06,1.49t-1.84,4.13l11.02,0q0-1.24-0.34-2.27t-1-1.78t-1.61-1.16t-2.17-0.41z M338.52,48.8l0-20.26l2.04,0q0.58,0,0.8,0.22t0.3,0.76l0.24,3.16q1.04-2.12,2.57-3.31t3.59-1.19q0.84,0,1.52,0.19t1.26,0.53l-0.46,2.66q-0.14,0.5-0.62,0.5q-0.28,0-0.86-0.19t-1.62-0.19q-1.86,0-3.11,1.08t-2.09,3.14l0,12.9l-3.56,0z"/>
    </g>
  </g>
</svg>